HIERARCHY
ROOT Hips
{
  OFFSET -38.291 145.818 224.336
  CHANNELS 6 Xposition Yposition Zposition Zrotation Xrotation Yrotation
  JOINT abdomen
  {
    OFFSET -0.204096 -0.0793556 0
    CHANNELS 6 Xposition Yposition Zposition Zrotation Xrotation Yrotation
    JOINT Chest
    {
      OFFSET 15.39 -0.0462666 0.769468
      CHANNELS 6 Xposition Yposition Zposition Zrotation Xrotation Yrotation
      JOINT Neck
      {
        OFFSET 69.6752 -0.00800823 5.8136e-005
        CHANNELS 6 Xposition Yposition Zposition Zrotation Xrotation Yrotation
        JOINT Head
        {
          OFFSET 10.0493 0 0
          CHANNELS 6 Xposition Yposition Zposition Zrotation Xrotation Yrotation
          End Site
          {
            OFFSET 0 0 0
          }
        }
        JOINT LeftCollar
        {
          OFFSET 1.93787e-005 0.00799854 4.68965
          CHANNELS 6 Xposition Yposition Zposition Zrotation Xrotation Yrotation
          JOINT LeftShoulder
          {
            OFFSET 17.4188 1.93787e-005 0
            CHANNELS 6 Xposition Yposition Zposition Zrotation Xrotation Yrotation
            JOINT LeftElbow
            {
              OFFSET 40.1972 0 -3.87573e-005
              CHANNELS 6 Xposition Yposition Zposition Zrotation Xrotation Yrotation
              JOINT LeftWrist
              {
                OFFSET 40.1972 0 0
                CHANNELS 6 Xposition Yposition Zposition Zrotation Xrotation Yrotation
                End Site
                {
                  OFFSET 0 0 0
                }
              }
            }
          }
        }
        JOINT RightCollar
        {
          OFFSET 0 0.00802276 -4.68969
          CHANNELS 6 Xposition Yposition Zposition Zrotation Xrotation Yrotation
          JOINT RightShoulder
          {
            OFFSET 17.4188 0 1.93787e-005
            CHANNELS 6 Xposition Yposition Zposition Zrotation Xrotation Yrotation
            JOINT RightElbow
            {
              OFFSET 40.1973 0 -1.93787e-005
              CHANNELS 6 Xposition Yposition Zposition Zrotation Xrotation Yrotation
              JOINT RightWrist
              {
                OFFSET 40.1972 0 1.93787e-005
                CHANNELS 6 Xposition Yposition Zposition Zrotation Xrotation Yrotation
                End Site
                {
                  OFFSET 0 0 0
                }
              }
            }
          }
        }
      }
      JOINT RightHip
      {
        OFFSET -14.2451 1.26822 -13.3478
        CHANNELS 6 Xposition Yposition Zposition Zrotation Xrotation Yrotation
        JOINT RightKnee
        {
          OFFSET 66.9954 0 -1.93787e-005
          CHANNELS 6 Xposition Yposition Zposition Zrotation Xrotation Yrotation
          JOINT RightAnkle
          {
            OFFSET 66.9954 -1.93787e-005 0
            CHANNELS 6 Xposition Yposition Zposition Zrotation Xrotation Yrotation
            JOINT RightToe
            {
              OFFSET 15.4089 19.8306 -1.93787e-005
              CHANNELS 6 Xposition Yposition Zposition Zrotation Xrotation Yrotation
              End Site
              {
                OFFSET 0 0 0
              }
            }
          }
        }
      }
      JOINT LeftHip
      {
        OFFSET -16.2927 2.98726 13.3167
        CHANNELS 6 Xposition Yposition Zposition Zrotation Xrotation Yrotation
        JOINT LeftKnee
        {
          OFFSET 66.9954 0 3.87573e-005
          CHANNELS 6 Xposition Yposition Zposition Zrotation Xrotation Yrotation
          JOINT LeftAnkle
          {
            OFFSET 66.9954 0 -3.87573e-005
            CHANNELS 6 Xposition Yposition Zposition Zrotation Xrotation Yrotation
            JOINT LeftToe
            {
              OFFSET 15.4089 19.8306 0
              CHANNELS 6 Xposition Yposition Zposition Zrotation Xrotation Yrotation
              End Site
              {
                OFFSET 0 0 0
              }
            }
          }
        }
      }
    }
  }
}
MOTION
Frames:	6
Frame Time:	0.0333333
-38.291 145.818 224.336 -90 -17.2688 -102.826 -6.51396 -0.299904 0 -89.9999 -6.35784e-006 -94.7802 15.3625 -0.0548998 -1.28763 7.46133 3.67787 4.39112 69.6752 -0.00800339 -1.80478e-014 7.95139e-016 -1.73423e-007 1.98785e-016 10.0493 1.93787e-005 1.80478e-014 2.03007 -2.29507 -2.49154 3.87573e-005 0.00800339 4.68969 179.954 -22.8401 -88.7743 17.4188 -9.68933e-006 3.60956e-014 -42.71 -22.9709 51.2213 40.1973 1.93787e-005 9.68933e-006 -21.9758 6.36111e-015 -3.41509e-006 40.1973 1.93787e-005 -9.68933e-006 100.563 -85.9945 105.751 1.93787e-005 0.00806152 -4.6897 179.954 2.09984 75.2901 17.4188 1.93787e-005 1.93787e-005 -11.8878 9.61235 -40.4446 40.1973 -3.60956e-014 1.93787e-005 -40.6617 0 -4.26887e-006 40.1973 -3.60956e-014 -3.60956e-014 115.253 86.6659 -123.337 -14.2451 1.26822 -13.3478 -14.0934 -15.3892 168.994 66.9954 0 0 -9.23417 1.28066e-006 2.13443e-006 66.9954 1.93787e-005 0 -9.57151 0.0156143 -0.0925623 15.409 19.8306 -4.84467e-006 90 -2.13443e-006 -2.01771e-007 -16.2927 2.98726 13.3167 -9.82771 4.99572 -176.663 66.9954 1.93787e-005 9.68933e-006 -37.2378 2.40124e-006 1.17394e-006 66.9954 2.9068e-005 9.68933e-006 20.1404 0.0719879 2.4621 15.4089 19.8306 1.80478e-014 90 -2.56132e-006 -1.86763e-007 
-34.2367 145.826 235.148 -89.6264 -11.8778 -101.795 -5.97146 -0.00398232 9.68933e-006 -89.9999 -5.98132e-006 -94.4965 15.3679 -0.0549191 -1.21276 6.71833 4.88346 4.47031 69.6752 -0.00798401 -9.68933e-006 1.88168e-016 2.61228e-007 -4.12713e-008 10.0493 0 0 2.39922 -2.10403 -2.15838 0 0.00798401 4.68968 179.954 -18.3397 -86.8405 17.4188 -1.93787e-005 -1.93787e-005 -42.8799 -18.4573 47.0164 40.1973 1.93787e-005 -1.93787e-005 -25.5203 2.38542e-015 1.70755e-006 40.1972 -1.93787e-005 0 103.21 -85.7555 108.204 -1.93787e-005 0.00804215 -4.68968 179.954 3.99935 74.7986 17.4188 1.93787e-005 -1.93787e-005 -9.28988 11.3953 -38.1583 40.1972 3.87573e-005 -1.93787e-005 -36.122 3.41509e-006 -2.56132e-006 40.1973 0 0 112.226 86.6783 -120.988 -14.2509 0.808265 -13.4515 -16.61 -16.9165 167.816 66.9954 -1.93787e-005 -9.02389e-015 -13.2976 1.06722e-007 3.84198e-006 66.9954 0 4.84467e-006 -7.45604 0.1257 -0.666565 15.409 19.8306 -4.84467e-006 90 -2.56132e-006 2.16778e-008 -16.3321 3.08962 13.1682 -9.90767 8.10348 -175.805 66.9954 0 -9.68933e-006 -36.1761 4.26887e-007 -1.06722e-006 66.9954 1.93787e-005 -1.80478e-014 19.4376 0.0662752 2.53749 15.409 19.8306 -9.68933e-006 90 -2.56132e-006 2.1878e-006 
-30.1188 145.904 245.903 -89.3621 -6.58259 -100.761 -5.42056 0.287197 -3.60956e-014 -89.9999 -5.61478e-006 -94.2204 15.3728 -0.0548416 -1.1401 5.9452 6.30712 4.55423 69.6752 -0.00796463 0 2.79541e-017 8.23758e-007 5.33609e-008 10.0493 0 -4.84467e-006 2.77655 -2.13162 -1.78398 0 0.00798401 4.68968 179.954 -13.8394 -84.9067 17.4188 -3.87573e-005 3.87573e-005 -42.8795 -13.8369 43.1108 40.1972 1.93787e-005 0 -29.0648 1.63003e-014 -5.12264e-006 40.1972 1.93787e-005 -9.68933e-006 105.581 -85.509 110.381 7.21912e-014 0.00802277 -4.68968 179.954 6.05518 74.2728 17.4188 1.93787e-005 3.60956e-014 -6.7237 13.3265 -35.8749 40.1973 1.93787e-005 -1.80478e-014 -31.5022 -3.4151e-006 -3.41509e-006 40.1972 0 -9.68933e-006 109.093 86.673 -118.529 -14.2543 0.290137 -13.5403 -19.1944 -18.5633 166.442 66.9954 1.93787e-005 -1.09005e-005 -17.3609 2.93485e-007 2.13443e-006 66.9954 -3.87573e-005 7.267e-006 -5.33047 0.248733 -1.26791 15.409 19.8306 -2.42233e-006 90 -2.13443e-006 -1.26399e-006 -16.3694 3.23416 13.0116 -10.0563 10.9497 -174.957 66.9954 -1.93787e-005 -1.80478e-014 -35.1566 1.38738e-006 2.13443e-007 66.9954 -3.60956e-014 9.68933e-006 18.8485 0.0675414 2.58913 15.409 19.8306 0 90 -2.13443e-006 -1.06722e-007 
-26.1282 146.044 256.773 -89.1986 -1.33409 -99.7313 -4.90416 0.624594 3.60956e-014 -89.9999 -5.25444e-006 -93.9491 15.3773 -0.0548222 -1.06828 5.23733 7.30372 4.69521 69.6752 -0.00796463 -4.84467e-006 7.95139e-016 -2.46794e-007 2.98177e-016 10.0493 0 -9.02389e-015 3.199 -2.89155 -1.48158 -1.93787e-005 0.00796463 4.68968 179.954 -11.4701 -83.4932 17.4188 -1.93787e-005 -1.93787e-005 -43.2839 -10.5285 39.9983 40.1972 3.87573e-005 -3.60956e-014 -31.8518 1.70755e-006 -3.41509e-006 40.1972 1.93787e-005 1.93787e-005 107.323 -85.2908 111.953 -1.93787e-005 0.00800339 -4.68967 179.954 7.79835 73.8156 17.4188 1.93787e-005 -1.93787e-005 -4.47462 15.4267 -33.625 40.1972 3.87573e-005 -9.68933e-006 -27.0426 -1.70755e-006 -6.36111e-015 40.1973 -1.93787e-005 0 106.141 86.6814 -116.259 -14.2404 -0.121194 -13.6275 -21.4957 -21.5514 164.649 66.9954 0 -2.42233e-006 -20.3229 -6.80351e-007 4.26887e-007 66.9954 -1.93787e-005 -2.42233e-006 -3.6197 0.350992 -1.74482 15.409 19.8306 -7.267e-006 90 -3.41509e-006 -8.00413e-008 -16.4162 3.28567 12.864 -10.3049 14.2044 -174.037 66.9954 1.93787e-005 1.80478e-014 -34.1541 9.60495e-007 -1.92099e-006 66.9954 -1.93787e-005 0 18.3057 0.0720144 2.60766 15.4089 19.8306 9.68933e-006 90 -2.56132e-006 6.67011e-007 
-22.4557 146.234 267.931 -89.1293 3.91656 -98.7145 -4.45889 1.04618 1.80478e-014 -89.9999 -3.9172e-006 -93.6797 15.3817 -0.054861 -0.995914 4.6888 7.22677 4.92686 69.6752 -0.00798401 -4.84467e-006 -2.13443e-007 1.33402e-008 -1.06722e-007 10.0493 0 2.42233e-006 3.65344 -4.19713 -1.27424 3.60956e-014 0.00800339 4.68968 179.954 -12.6105 -82.9285 17.4188 0 -1.93787e-005 -44.5868 -9.61779 37.8027 40.1972 -1.93787e-005 -3.60956e-014 -33.2776 -8.53774e-006 6.83019e-006 40.1973 0 3.60956e-014 108.222 -85.1147 112.734 -1.93787e-005 0.00800339 -4.68967 179.954 8.75982 73.53 17.4188 1.93787e-005 0 -2.81902 17.6902 -31.455 40.1972 1.93787e-005 -1.4534e-005 -22.9833 1.70755e-006 3.41509e-006 40.1973 1.93787e-005 -1.80478e-014 103.564 86.7379 -114.379 -14.1981 -0.258686 -13.7398 -23.4722 -26.392 162.283 66.9954 1.93787e-005 -9.68933e-006 -21.6058 -4.3289e-006 4.26887e-007 66.9954 -1.93787e-005 9.68933e-006 -2.51731 0.398548 -1.95551 15.4089 19.8306 -9.68933e-006 90 -2.56132e-006 -1.38738e-006 -16.4814 3.11248 12.7472 -10.701 18.535 -172.932 66.9954 1.93787e-005 9.68933e-006 -33.1431 -1.06722e-007 -4.26887e-007 66.9954 1.93787e-005 9.68933e-006 17.7411 0.0752161 2.58996 15.4089 19.8306 0 90 -2.56132e-006 -3.33505e-007 
-18.9862 146.447 279.37 -89.1481 9.2183 -97.7208 -4.05886 1.59568 1.93787e-005 -89.9999 -5.44464e-006 -93.4094 15.3858 -0.0550742 -0.921499 4.34921 5.30325 5.29087 69.6752 -0.00800339 6.05583e-007 6.95746e-016 -1.86763e-007 2.13443e-007 10.0493 1.93787e-005 6.05583e-007 4.09718 -4.56363 -1.2657 3.87573e-005 0.00802277 4.68968 179.954 -15.882 -82.8841 17.4188 -3.87573e-005 0 -45.2545 -10.263 36.1275 40.1973 -1.93787e-005 3.60956e-014 -33.946 -3.41509e-006 2.56132e-006 40.1972 -1.93787e-005 0 108.706 -84.9729 113.123 1.93787e-005 0.00804214 -4.68968 179.954 8.17357 73.5233 17.4188 1.93787e-005 -1.93787e-005 -1.6872 20.6053 -29.4059 40.1972 0 -1.80478e-014 -19.403 -1.70755e-006 -6.36111e-015 40.1972 -3.87573e-005 -9.68933e-006 101.432 86.9108 -113.05 -14.1159 0.0632132 -13.898 -25.3135 -31.2349 159.812 66.9954 -1.93787e-005 0 -21.7874 2.86815e-007 -6.4033e-007 66.9954 -1.93787e-005 9.68933e-006 -1.83668 0.398907 -1.953 15.409 19.8307 -1.93787e-005 90 -2.13443e-006 -1.56081e-006 -16.5765 2.5401 12.6718 -11.2822 24.7252 -171.457 66.9954 1.93787e-005 0 -32.0983 -1.4941e-006 4.26887e-007 66.9954 -7.21911e-014 -1.80478e-014 17.0869 0.0723726 2.5392 15.409 19.8306 9.68933e-006 90 -2.98821e-006 -9.87176e-007 
